<svg width="40" height="40" viewBox="0 0 40 40" fill="none" xmlns="http://www.w3.org/2000/svg">
<path fill-rule="evenodd" clip-rule="evenodd" d="M36.5387 17.6113C36.3013 19.2559 35.7387 20.8189 34.905 22.2563C34.9675 22.6121 34.9996 22.9719 34.9996 23.3331C34.9996 24.5878 34.636 25.7886 33.9626 26.8796C33.6264 27.4242 33.5399 28.0623 33.5067 28.4839C33.4685 28.9671 33.4814 29.4958 33.5159 30.0037C33.5546 30.5735 33.6246 31.1717 33.7048 31.736C33.0543 31.5463 32.3492 31.3558 31.6763 31.204C31.1166 31.0777 30.5439 30.9701 30.0252 30.9165C29.5727 30.8698 28.9188 30.8336 28.3341 31.0226C27.0556 31.4359 25.6488 31.6665 24.1662 31.6665C22.403 31.6665 20.7837 31.3535 19.3643 30.8098C19.0229 30.8253 18.679 30.8331 18.3328 30.8331C16.3252 30.8331 14.3929 30.5691 12.585 30.0811C15.2132 33.1209 19.546 34.9998 24.1662 34.9998C25.9711 34.9998 27.7034 34.7227 29.2999 34.2135C29.3027 34.2136 29.3078 34.2135 29.3153 34.2133C29.3563 34.2125 29.4701 34.2103 29.6827 34.2322C30.017 34.2667 30.4469 34.3437 30.9428 34.4556C31.9301 34.6783 33.0395 35.007 33.9041 35.2814C35.7377 35.8635 37.5143 34.2634 37.1866 32.4027C37.0456 31.6019 36.899 30.6245 36.8415 29.7778C36.8126 29.3521 36.8094 29.0026 36.8297 28.7462C36.8381 28.6399 36.8488 28.5733 36.8556 28.5379C37.7933 26.9846 38.3329 25.216 38.3329 23.3331C38.3329 21.2105 37.6736 19.2723 36.5387 17.6113Z" fill="#FF5A30"/>
<path fill-rule="evenodd" clip-rule="evenodd" d="M9.3287 9.49661C7.08211 11.2146 5.83363 13.4698 5.83363 15.833C5.83363 17.0114 6.1404 18.1463 6.71594 19.2017C6.93515 19.6037 6.99734 20.0183 7.01957 20.299C7.04382 20.6051 7.03173 20.9197 7.00512 21.2139C6.95182 21.8028 6.8247 22.4701 6.67221 23.1274C6.49384 23.8962 6.26529 24.7162 6.03337 25.486C6.91379 25.166 7.87606 24.8381 8.78831 24.5719C9.52559 24.3568 10.2702 24.1702 10.9328 24.0654C11.5037 23.9751 12.332 23.8864 13.0452 24.1332C14.6458 24.6869 16.4363 24.9997 18.3336 24.9997C21.9122 24.9997 25.0904 23.8886 27.3386 22.1694C29.5852 20.4514 30.8336 18.1962 30.8336 15.833C30.8336 13.4698 29.5852 11.2146 27.3386 9.49661C25.0904 7.77745 21.9122 6.66634 18.3336 6.66634C14.755 6.66634 11.5768 7.77745 9.3287 9.49661ZM7.30387 6.84875C10.1831 4.64702 14.0882 3.33301 18.3336 3.33301C22.5791 3.33301 26.4842 4.64702 29.3634 6.84875C32.2441 9.05167 34.167 12.2131 34.167 15.833C34.167 19.4529 32.2441 22.6143 29.3634 24.8173C26.4842 27.019 22.5791 28.333 18.3336 28.333C16.0952 28.333 13.9571 27.9681 12.0157 27.3041C12.0138 27.3095 11.8563 27.2941 11.4534 27.3578C10.989 27.4313 10.3962 27.5751 9.72187 27.7719C8.37942 28.1635 6.87184 28.7176 5.72353 29.1645C3.73415 29.9387 1.70756 28.0281 2.37783 25.9929C2.73308 24.9142 3.15205 23.5511 3.42512 22.3741C3.56268 21.7812 3.65194 21.2827 3.68535 20.9135C3.69694 20.7853 3.69994 20.6919 3.69927 20.6288C2.93213 19.1629 2.5003 17.5417 2.5003 15.833C2.5003 12.2131 4.42314 9.05167 7.30387 6.84875ZM3.69378 20.5379C3.69394 20.5377 3.69475 20.5422 3.69572 20.5518C3.6941 20.5429 3.69362 20.5381 3.69378 20.5379Z" fill="#FF5A30"/>
</svg>
