<svg width="53" height="52" viewBox="0 0 53 52" fill="none" xmlns="http://www.w3.org/2000/svg">
<path d="M40.0625 4.21875C40.0625 1.89258 38.1699 0 35.8438 0H7.71875C5.39258 0 3.5 1.89258 3.5 4.21875V12.6562C3.5 14.9824 5.39258 16.875 7.71875 16.875H35.8438C38.1699 16.875 40.0625 14.9824 40.0625 12.6562V11.25H41.4688C42.244 11.25 42.875 11.881 42.875 12.6562V18.2812C42.875 19.0565 42.244 19.6875 41.4688 19.6875H24.5938C22.2676 19.6875 20.375 21.5801 20.375 23.9062V28.125H18.9688C18.192 28.125 17.5625 28.7545 17.5625 29.5312V35.0797L16.1562 40.7955C15.2418 44.4529 18.0052 48 21.7812 48C25.5591 48 28.3196 44.4492 27.4077 40.8007L26 35.0797V29.5312C26 28.7545 25.3705 28.125 24.5938 28.125H23.1875V23.9062C23.1875 23.131 23.8185 22.5 24.5938 22.5H41.4688C43.7949 22.5 45.6875 20.6074 45.6875 18.2812V12.6562C45.6875 10.3301 43.7949 8.4375 41.4688 8.4375H40.0625V4.21875ZM23.1875 30.9375V33.8438H20.375V30.9375H23.1875ZM21.7812 45.1875C19.844 45.1875 18.4117 43.3693 18.886 41.4727L20.071 36.6562H23.4915L24.6776 41.4778C25.1486 43.3612 23.7255 45.1875 21.7812 45.1875ZM7.71875 2.8125H35.8438C36.619 2.8125 37.25 3.44348 37.25 4.21875V5.625H33.0312C31.6646 5.625 29.917 6.13696 27.8933 6.72949C25.1599 7.53003 22.0621 8.4375 18.9688 8.4375C15.9534 8.4375 13.8275 7.55676 11.9518 6.78003C10.5177 6.18604 9.16345 5.625 7.71875 5.625H6.3125V4.21875C6.3125 3.44348 6.94348 2.8125 7.71875 2.8125ZM37.25 12.6562C37.25 13.4315 36.619 14.0625 35.8438 14.0625H7.71875C6.94348 14.0625 6.3125 13.4315 6.3125 12.6562V8.4375H7.71875C8.60388 8.4375 9.60657 8.85278 10.8755 9.3783C12.8885 10.2122 15.3938 11.25 18.9688 11.25C22.4657 11.25 25.9132 10.24 28.684 9.42883C30.4242 8.91907 32.0681 8.4375 33.0312 8.4375H37.25V12.6562Z" fill="#FF5A30"/>
</svg>
